<?xml version="1.0" encoding="utf-8"?>
<!-- Generator: Adobe Illustrator 16.0.0, SVG Export Plug-In . SVG Version: 6.00 Build 0)  -->
<!DOCTYPE svg PUBLIC "-//W3C//DTD SVG 1.1//EN" "http://www.w3.org/Graphics/SVG/1.1/DTD/svg11.dtd">
<svg version="1.1" id="Layer_1" xmlns="http://www.w3.org/2000/svg" xmlns:xlink="http://www.w3.org/1999/xlink" x="0px" y="0px"
	 width="772.34px" height="106.043px" viewBox="0 0 772.34 106.043" enable-background="new 0 0 772.34 106.043"
	 xml:space="preserve">
<g>
	<g>
		<g>
			<path fill="#FFFFFF" d="M32.731,104.303H3.276c-1.873,0-3.276-1.403-3.276-3.272V30.732C0,15.459,12.476,2.987,27.746,2.987
				c15.273,0,27.749,12.472,27.749,27.745c0,6.706-2.185,12.625-6.086,17.461c-0.928,1.084-0.928,2.175,0.469,2.96
				c7.33,5.295,12.163,14.022,12.163,23.841C62.04,91.052,48.792,104.303,32.731,104.303z M27.746,15.925
				c-8.105,0-14.807,6.705-14.807,14.807v11.535c0,1.869,1.4,3.272,3.272,3.272h11.535c8.258,0,14.804-6.545,14.804-14.807
				C42.55,22.63,36.004,15.925,27.746,15.925z M32.731,58.63H16.211c-1.873,0-3.272,1.404-3.272,3.12v26.342
				c0,1.71,1.4,3.272,3.272,3.272h16.521c8.887,0,16.37-7.483,16.37-16.37C49.102,65.961,41.618,58.63,32.731,58.63z"/>
			<path fill="#FFFFFF" d="M318.463,104.303h-6.545c-1.873,0-3.273-1.403-3.273-3.272V80.455c0-10.916-8.734-19.483-19.483-19.483
				c-10.756,0-19.487,8.567-19.487,19.483v20.575c0,1.869-1.4,3.272-3.272,3.272h-6.389c-1.869,0-3.273-1.403-3.273-3.272V3.612
				c0-1.87,1.404-3.273,3.273-3.273h6.389c1.873,0,3.272,1.403,3.272,3.273v48.632c0,1.244,0.469,1.716,2.026,0.931
				c4.992-3.272,10.909-5.295,17.461-5.295c1.403,0,2.647-0.319,3.422-1.557l14.501-20.887c1.087-1.403,3.116-1.875,4.52-0.785
				l5.302,3.738c1.557,1.091,1.869,2.967,0.775,4.523L305.99,49.903c-0.778,0.931-0.778,2.182,0.782,3.272
				c9.046,5.614,14.807,15.745,14.807,27.279v20.575C321.579,102.899,320.179,104.303,318.463,104.303z"/>
			<path fill="#FFFFFF" d="M441.245,104.303h-6.546c-1.869,0-3.272-1.403-3.272-3.272V35.408c0-10.756-8.728-19.483-19.477-19.483
				c-10.764,0-19.49,8.728-19.49,19.483v65.622c0,1.869-1.404,3.272-3.273,3.272h-6.393c-1.869,0-3.272-1.403-3.272-3.272V35.408
				c0-17.927,14.495-32.421,32.429-32.421c17.92,0,32.414,14.495,32.414,32.421v65.622
				C444.364,102.899,442.961,104.303,441.245,104.303z"/>
			<path fill="#FFFFFF" d="M458.88,31.982c-1.092,0-1.717-3.738-0.153-3.738c3.738,0,5.614-5.308,3.738-8.421
				c-2.328-3.898-7.79-2.495-7.79-7.796c0-4.364,3.426-7.796,7.79-7.796c4.517,0,8.574,3.752,8.574,10.291
				C471.039,22.783,466.676,31.982,458.88,31.982z"/>
			<path fill="#FFFFFF" d="M559.397,104.303h-29.156c-1.869,0-3.272-1.403-3.272-3.272V7.503c0-1.863,1.403-3.273,3.272-3.273
				h29.156c17.92,0,32.415,14.661,32.415,32.582v35.381C591.812,89.961,577.158,104.303,559.397,104.303z M578.874,36.812
				c0-10.909-8.728-19.484-19.477-19.484H543.18c-1.876,0-3.272,1.404-3.272,3.12v67.644c0,1.71,1.396,3.272,3.272,3.272h16.218
				c10.749,0,19.477-8.728,19.477-19.483V36.812z"/>
			<path fill="#FFFFFF" d="M612.067,15.925c-4.363,0-7.796-3.273-7.796-7.796c0-4.364,3.433-7.79,7.796-7.79
				c4.517,0,7.796,3.426,7.796,7.79C619.863,12.652,616.584,15.925,612.067,15.925z M615.341,104.303h-6.387
				c-1.876,0-3.279-1.403-3.279-3.272V29.641c0-1.869,1.403-3.273,3.279-3.273h6.387c1.869,0,3.272,1.404,3.272,3.273v71.389
				C618.613,102.899,617.21,104.303,615.341,104.303z"/>
			<path fill="#FFFFFF" d="M693.7,49.118l-24.785,53.156c-0.771,1.562-2.488,2.028-4.204,2.028h-2.341
				c-1.717,0-3.433-0.466-4.205-2.028l-25.25-54.241c-1.563-3.272-1.876-5.301-1.876-8.887v-9.506c0-1.869,1.403-3.273,3.272-3.273
				h6.393c1.869,0,3.266,1.404,3.266,3.273v7.949c0,2.807,0.479,4.523,1.717,7.018l16.363,35.069c0.785,1.717,1.877,1.863,2.821,0
				l16.363-34.916c1.237-2.495,1.716-4.051,1.716-6.699v-8.421c0-1.869,1.397-3.273,3.267-3.273h6.546
				c1.716,0,3.119,1.404,3.119,3.273v10.284C695.882,43.67,695.257,45.845,693.7,49.118z"/>
			<path fill="#FFFFFF" d="M762.681,71.881h-38.967c-1.716,0-3.432,0.625-3.272,2.808c0.625,10.124,9.192,18.08,19.49,18.08
				c6.08,0,11.375-2.808,14.801-6.858c1.084-1.403,2.96-1.717,4.363-0.778l5.462,3.897c1.396,1.092,1.862,2.961,0.771,4.364
				c-5.761,7.477-14.961,12.307-25.397,12.307c-17.934,0-32.429-14.488-32.429-32.422V57.699c0-17.92,14.495-32.582,32.429-32.582
				c17.921,0,32.408,14.661,32.408,32.582v4.363C772.34,67.357,767.977,71.881,762.681,71.881z M739.932,38.216
				c-10.138,0-18.399,7.789-19.331,17.607c-0.318,2.494,0.619,2.967,3.113,2.967h32.422c2.488,0,3.272-0.932,3.113-2.808
				C758.471,45.845,750.209,38.216,739.932,38.216z"/>
		</g>
	</g>
	<g>
		<path fill="#FFFFFF" d="M238.912,70.949c-4.104,4.444-8.571,6.666-12.047,7.77c2.148,1.53,4.154,3.605,5.136,6.466
			c1.23,3.579,0.572,7.597-1.893,11.961c7.244-1.663,12.652-8.103,12.652-15.806C242.76,77.375,241.304,73.757,238.912,70.949z"/>
		<path fill="#FFFFFF" d="M162.896,74.94c0.094-0.891,2.827-22.137,36.613-24.346c0.25-0.013,20.418-0.931,28.148-13.65l-0.007,0.02
			c0,0,2.408-3.485,3.658-7.656c0.104-0.319,0.17-0.659,0.256-0.991c0.06-0.246,0.136-0.485,0.19-0.738
			c0.023-0.133,0.033-0.226,0.053-0.346c0.22-1.145,0.376-2.315,0.376-3.539c0-5.322-2.202-10.078-5.654-13.264
			C220.43,4.177,209.537,0,197.078,0c-19.125,0-34.627,9.812-34.627,21.912c0,2.714,0.795,5.295,2.235,7.683
			c1.663,2.428,6.838,7.55,20.195,5.448c16.919-2.674,15.126-12.492,14.863-13.683c-0.476-2.128-5.561-7.51-11.039-1.929
			c-5.478,5.581-15.918-12.193,6.615-13.75c0,0,19.427-0.825,19.224,12.2C214.36,29.495,190.669,42,174.548,39.293
			c-5.661-0.372-10.919-4.676-11.844-5.488c-11.122-12.453-21.692-18.945-30.127-22.244c-0.149-0.066-0.303-0.12-0.456-0.186
			c-0.668-0.253-1.327-0.492-1.969-0.719c-2.863-1.024-5.857-1.763-8.96-2.168c-0.023-0.013-0.043-0.013-0.063-0.013
			c-0.795-0.106-1.596-0.187-2.408-0.246c-0.063-0.007-0.106-0.007-0.173-0.007c-1.037-0.08-2.072-0.16-3.126-0.16
			c-24.146,0-43.72,19.57-43.72,43.717c0,24.147,19.574,43.723,43.72,43.723c11.205,0,21.389-4.264,29.122-11.195
			c1.483-1.011,6.303-3.752,11.105-1.676c-0.243,0.465-0.615,0.864-0.755,1.377c-2.069,7.337,7.42,16.431,21.183,20.309
			c7.61,2.142,14.88,2.222,20.219,0.625C173.284,100.032,161.171,89.31,162.896,74.94z M149.875,48.626
			c-3.263,0-5.914-2.647-5.914-5.907c0-3.272,2.651-5.92,5.914-5.92c3.266,0,5.917,2.647,5.917,5.92
			C155.792,45.979,153.142,48.626,149.875,48.626z"/>
		<path fill="#FFFFFF" d="M221.234,80.954c-3.456-1.33-8.684-3.047-13.843-3.565c-2.594-0.266-4.862-0.399-6.738-0.399
			c-4.586,0-5.894,0.785-6.263,1.251c-0.22,0.279-0.163,0.532-0.12,0.719c0.127,0.559,2.385,2.714,5.934,2.714
			c0.932,0,1.873-0.16,2.801-0.459c0.466-0.153,0.961-0.233,1.474-0.233c2.598,0,5.148,1.93,5.148,3.885
			c0,1.191-0.921,3.193-7.095,3.193c-1.792,0-3.914-0.173-6.309-0.506c-0.516-0.086-12.496-2.002-15.505-6.365
			c-0.632-0.918-0.845-1.89-0.636-2.888c0.878-4.171,11.578-6.353,21.695-6.353c7.221,0,13.796,1.058,18.513,2.974
			c0.1,0.033,0.266,0.087,0.442,0.146l0.083-0.014c0.452-0.007,11.152-0.266,18.256-12.393c1.184-2.74,1.799-5.694,1.799-8.714
			c0-6.492-2.86-12.585-7.869-16.816c-8.139,16.683-32.186,18.173-33.217,18.226C170.204,57.3,167.726,74.755,167.636,75.5
			c-2.145,17.894,23.954,24.026,35.272,25.836c0.769,0.007,1.58,0.014,2.358,0.014c14.378,0,18.243-3.113,19.081-4.059
			c3.04-4.17,4.104-7.729,3.133-10.557C226.489,83.841,223.536,81.999,221.234,80.954z"/>
	</g>
</g>
</svg>
